<?xml version="1.0" encoding="UTF-8" standalone="no"?>
<!-- Created with Inkscape (http://www.inkscape.org/) -->

<svg
   version="1.1"
   id="svg2"
   width="494.09332"
   height="495.44"
   viewBox="0 0 494.09332 495.44"
   sodipodi:docname="outlook-seeklogo.com.eps"
   xmlns:inkscape="http://www.inkscape.org/namespaces/inkscape"
   xmlns:sodipodi="http://sodipodi.sourceforge.net/DTD/sodipodi-0.dtd"
   xmlns="http://www.w3.org/2000/svg"
   xmlns:svg="http://www.w3.org/2000/svg">
  <defs
     id="defs6" />
  <sodipodi:namedview
     id="namedview4"
     pagecolor="#ffffff"
     bordercolor="#000000"
     borderopacity="0.25"
     inkscape:showpageshadow="2"
     inkscape:pageopacity="0.0"
     inkscape:pagecheckerboard="0"
     inkscape:deskcolor="#d1d1d1" />
  <g
     id="g8"
     inkscape:groupmode="layer"
     inkscape:label="ink_ext_XXXXXX"
     transform="matrix(1.3333333,0,0,-1.3333333,0,495.44)">
    <g
       id="g10"
       transform="scale(0.1)">
      <path
         d="M 0,3340.58 V 426.141 L 2174.89,0 V 3715.85 L 0,3340.58"
         style="fill:#3872c2;fill-opacity:1;fill-rule:nonzero;stroke:none"
         id="path12" />
      <path
         d="M 2309.88,1946.38 V 968.91 h 1229.94 c 0,0 179.99,25.031 164.99,261.14 l 0.89,1277 -900.84,-609.52 c 0,0 -254.99,-205.9 -494.98,48.85"
         style="fill:#3872c2;fill-opacity:1;fill-rule:nonzero;stroke:none"
         id="path14" />
      <path
         d="m 2309.88,2961.61 h 1239.94 c 0,0 145.89,10 145.88,-148.91 l -1120.83,-746.6 -264.99,168.91 v 726.6"
         style="fill:#3872c2;fill-opacity:1;fill-rule:nonzero;stroke:none"
         id="path16" />
      <path
         d="m 1086.96,1500.49 c -131.491,0 -238.081,174.84 -238.081,390.52 0,215.68 106.59,390.52 238.081,390.52 131.49,0 238.09,-174.84 238.09,-390.52 0,-215.68 -106.6,-390.52 -238.09,-390.52 z m 5.81,1048.55 c -273.485,0 -495.172,-295.08 -495.172,-659.1 0,-364.02 221.687,-659.1 495.172,-659.1 273.47,0 495.17,295.08 495.17,659.1 0,364.02 -221.7,659.1 -495.17,659.1"
         style="fill:#ffffff;fill-opacity:1;fill-rule:nonzero;stroke:none"
         id="path18" />
    </g>
  </g>
</svg>
